<?xml version="1.0" encoding="UTF-8"?>
<svg width="463px" height="418px" viewBox="0 0 463 418" version="1.1" xmlns="http://www.w3.org/2000/svg" xmlns:xlink="http://www.w3.org/1999/xlink">
    <!-- Generator: Sketch 50.2 (55047) - http://www.bohemiancoding.com/sketch -->
    <title>Artboard</title>
    <desc>Created with Sketch.</desc>
    <defs>
        <linearGradient x1="50%" y1="0%" x2="50%" y2="100%" id="linearGradient-1">
            <stop stop-color="#D6C887" offset="0%"></stop>
            <stop stop-color="#403D31" offset="100%"></stop>
        </linearGradient>
    </defs>
    <g id="Artboard" stroke="none" stroke-width="1" fill="none" fill-rule="evenodd">
        <path d="M232.756,164.488 L233.044,162.76 L239.236,162.76 C242.020014,158.439978 244.875985,154.072022 247.804,149.656 C250.732015,145.239978 253.947982,141.088019 257.452,137.2 C260.956018,133.311981 264.843979,129.856015 269.116,126.832 C273.388021,123.807985 278.163974,121.624007 283.444,120.28 L283.444,119.992 C280.947988,119.992 278.404013,119.968 275.812,119.92 C273.219987,119.872 270.412015,119.8 267.388,119.704 C264.363985,119.608 261.004018,119.536 257.308,119.488 C253.611982,119.44 249.412024,119.416 244.708,119.416 C235.203952,119.416 226.564039,120.231992 218.788,121.864 C211.011961,123.496008 204.364028,125.799985 198.844,128.776 C193.323972,131.752015 189.028015,135.23198 185.956,139.216 C182.883985,143.20002 181.252001,147.591976 181.06,152.392 C180.867999,157.000023 182.523982,160.671986 186.028,163.408 C189.532018,166.144014 194.30797,167.512 200.356,167.512 C204.29202,167.512 208.323979,166.864006 212.452,165.568 C216.580021,164.271994 220.323983,162.448012 223.684,160.096 C227.044017,157.743988 229.803989,154.936016 231.964,151.672 C234.124011,148.407984 235.204,144.856019 235.204,141.016 C235.204,139.383992 235.060001,137.920006 234.772,136.624 C234.483999,135.327994 234.196001,134.152005 233.908,133.096 L235.348,132.808 C236.404005,135.496013 236.932,138.279986 236.932,141.16 C236.932,144.616017 235.92401,148.023983 233.908,151.384 C231.89199,154.744017 229.204017,157.743987 225.844,160.384 C222.483983,163.024013 218.572022,165.159992 214.108,166.792 C209.643978,168.424008 205.012024,169.24 200.212,169.24 C193.779968,169.24 188.692019,167.800014 184.948,164.92 C181.203981,162.039986 179.332,158.008026 179.332,152.824 C179.332,147.543974 181.131982,142.480024 184.732,137.632 C188.332018,132.783976 193.539966,128.488019 200.356,124.744 C207.172034,120.999981 215.54795,118.024011 225.484,115.816 C235.42005,113.607989 246.723937,112.504 259.396,112.504 C267.844042,112.504 275.211969,112.599999 281.5,112.792 C287.788031,112.984001 292.467985,113.08 295.54,113.08 C297.748011,113.08 299.739991,112.984001 301.516,112.792 C303.292009,112.599999 304.899993,112.504 306.34,112.504 C308.26001,112.504 309.891993,112.623999 311.236,112.864 C312.580007,113.104001 313.252,113.943993 313.252,115.384 C313.252,116.632006 313.012002,117.591997 312.532,118.264 C312.051998,118.936003 310.876009,119.415999 309.004,119.704 C307.131991,119.992001 304.372018,120.16 300.724,120.208 C297.075982,120.256 292.132031,120.28 285.892,120.28 C280.323972,122.29601 275.668019,124.959983 271.924,128.272 C268.179981,131.584017 264.940014,135.183981 262.204,139.072 C259.467986,142.960019 257.020011,146.94398 254.86,151.024 C252.699989,155.10402 250.324013,158.919982 247.732,162.472 C248.884006,162.279999 250.347991,162.136 252.124,162.04 C253.900009,161.944 255.651991,161.800001 257.38,161.608 C259.108009,161.415999 260.691993,161.176001 262.132,160.888 C263.572007,160.599999 264.483998,160.168003 264.868,159.592 C265.732004,158.439994 266.763994,157.288006 267.964,156.136 C269.164006,154.983994 270.77199,154.408 272.788,154.408 C274.036006,154.408 275.235994,154.599998 276.388,154.984 C272.45198,158.344017 268.756017,161.967981 265.3,165.856 C261.843983,169.744019 258.724014,173.895978 255.94,178.312 L255.076,177.88 C256.036005,175.191987 257.187993,172.624012 258.532,170.176 C259.876007,167.727988 261.219993,165.256012 262.564,162.76 C261.315994,162.952001 259.948007,163.119999 258.46,163.264 C256.971993,163.408001 255.508007,163.551999 254.068,163.696 C252.627993,163.840001 251.284006,163.96 250.036,164.056 C248.787994,164.152 247.780004,164.248 247.012,164.344 C243.555983,170.104029 239.83602,175.815972 235.852,181.48 C231.86798,187.144028 227.428024,192.255977 222.532,196.816 C217.635976,201.376023 212.16403,205.071986 206.116,207.904 C200.06797,210.736014 193.252038,212.152 185.668,212.152 C183.075987,212.152 180.316015,211.816003 177.388,211.144 C174.459985,210.471997 171.748012,209.416007 169.252,207.976 C166.755988,206.535993 164.692008,204.712011 163.06,202.504 C161.427992,200.295989 160.612,197.656015 160.612,194.584 C160.612,192.66399 161.163994,190.888008 162.268,189.256 C163.372006,187.623992 164.979989,186.808 167.092,186.808 C168.628008,186.808 169.803996,187.287995 170.62,188.248 C171.436004,189.208005 171.844,190.407993 171.844,191.848 C171.844,193.192007 171.508003,194.367995 170.836,195.376 C170.163997,196.384005 169.156007,196.888 167.812,196.888 C167.235997,196.888 166.756002,196.84 166.372,196.744 C166.372,197.032001 166.491999,197.919993 166.732,199.408 C166.972001,200.896007 167.715994,202.455992 168.964,204.088 C170.212006,205.720008 172.203986,207.183994 174.94,208.48 C177.676014,209.776006 181.491976,210.424 186.388,210.424 C192.628031,210.424 198.339974,208.864016 203.524,205.744 C208.708026,202.623984 213.411979,198.760023 217.636,194.152 C221.860021,189.543977 225.675983,184.552027 229.084,179.176 C232.492017,173.799973 235.587986,168.904022 238.372,164.488 L232.756,164.488 Z M297.412,258.264 C294.435985,264.888033 290.836021,270.647976 286.612,275.544 C282.387979,280.440024 277.684026,284.471984 272.5,287.64 C267.315974,290.808016 261.70003,293.159992 255.652,294.696 C249.60397,296.232008 243.316033,297 236.788,297 C234.77199,297 233.092007,297.071999 231.748,297.216 C230.403993,297.360001 229.300004,297.503999 228.436,297.648 L226.276,298.008 C225.699997,298.104 225.124003,298.152 224.548,298.152 C223.683996,298.152 222.964003,298.032001 222.388,297.792 C221.811997,297.551999 221.524,297.144003 221.524,296.568 C221.524,295.799996 221.931996,295.344001 222.748,295.2 C223.564004,295.055999 224.211998,294.984 224.692,294.984 C226.036007,294.984 227.331994,295.079999 228.58,295.272 C229.828006,295.464001 231.123993,295.655999 232.468,295.848 C238.228029,293.063986 243.12398,289.056026 247.156,283.824 C251.18802,278.591974 254.787984,272.736032 257.956,266.256 C261.124016,259.775968 264.075986,252.984036 266.812,245.88 C269.548014,238.775964 272.571983,232.032032 275.884,225.648 C279.196017,219.263968 283.011978,213.504026 287.332,208.368 C291.652022,203.231974 296.931969,199.368013 303.172,196.776 L302.884,196.488 C298.755979,197.160003 294.340024,198.983985 289.636,201.96 C284.931976,204.936015 280.204024,208.655978 275.452,213.12 C270.699976,217.584022 265.996023,222.575972 261.34,228.096 C256.683977,233.616028 252.244021,239.303971 248.02,245.16 C244.755984,249.768023 241.420017,254.471976 238.012,259.272 C234.603983,264.072024 231.076018,268.751977 227.428,273.312 C223.779982,277.872023 219.892021,282.263979 215.764,286.488 C211.635979,290.712021 207.124024,294.599982 202.228,298.152 L201.22,296.712 C204.580017,291.431974 207.29199,285.76803 209.356,279.72 C211.42001,273.67197 213.339991,267.528031 215.116,261.288 C216.892009,255.047969 218.691991,248.856031 220.516,242.712 C222.340009,236.567969 224.667986,230.712028 227.5,225.144 C230.332014,219.575972 233.859979,214.440024 238.084,209.736 C242.308021,205.031976 247.635968,201.048016 254.068,197.784 L253.78,197.496 C247.443968,199.608011 241.636026,202.65598 236.356,206.64 C231.075974,210.62402 226.180023,215.135975 221.668,220.176 C217.155977,225.216025 212.980019,230.639971 209.14,236.448 C205.299981,242.256029 201.604018,248.039971 198.052,253.8 C194.499982,259.560029 191.092016,265.127973 187.828,270.504 C184.563984,275.880027 181.204017,280.60798 177.748,284.688 C174.291983,288.76802 170.59602,292.031988 166.66,294.48 C162.72398,296.928012 158.308024,298.152 153.412,298.152 C152.163994,298.152 150.940006,298.056001 149.74,297.864 C148.539994,297.671999 147.436005,297.288003 146.428,296.712 C145.419995,296.135997 144.604003,295.368005 143.98,294.408 C143.355997,293.447995 143.044,292.200008 143.044,290.664 C143.044,289.223993 143.523995,288.024005 144.484,287.064 C145.444005,286.103995 146.643993,285.624 148.084,285.624 C149.332006,285.624 150.339996,286.103995 151.108,287.064 C151.876004,288.024005 152.26,289.127994 152.26,290.376 C152.26,291.144004 152.092002,291.959996 151.756,292.824 C151.419998,293.688004 150.868004,294.215999 150.1,294.408 C150.196,294.984003 150.771995,295.463998 151.828,295.848 C152.884005,296.232002 153.891995,296.424 154.852,296.424 C159.076021,296.424 163.011982,295.104013 166.66,292.464 C170.308018,289.823987 173.883982,286.320022 177.388,281.952 C180.892018,277.583978 184.371983,272.592028 187.828,266.976 C191.284017,261.359972 194.883981,255.52803 198.628,249.48 C203.044022,242.471965 207.459978,235.896031 211.876,229.752 C216.292022,223.607969 221.043975,218.112024 226.132,213.264 C231.220025,208.415976 236.81197,204.312017 242.908,200.952 C249.00403,197.591983 255.939961,195.144008 263.716,193.608 L263.86,194.904 C257.90797,196.728009 252.96402,199.63198 249.028,203.616 C245.09198,207.60002 241.708014,212.279973 238.876,217.656 C236.043986,223.032027 233.59601,228.887968 231.532,235.224 C229.46799,241.560032 227.356011,247.967968 225.196,254.448 C223.035989,260.928032 220.660013,267.287969 218.068,273.528 C215.475987,279.768031 212.21202,285.527974 208.276,290.808 L208.564,291.096 C212.116018,288.023985 215.691982,284.400021 219.292,280.224 C222.892018,276.047979 226.419983,271.680023 229.876,267.12 C233.332017,262.559977 236.667984,258.000023 239.884,253.44 C243.100016,248.879977 246.099986,244.680019 248.884,240.84 C256.372037,230.567949 263.235969,222.312031 269.476,216.072 C275.716031,209.831969 281.475974,205.008017 286.756,201.6 C292.036026,198.191983 296.859978,195.912006 301.228,194.76 C305.596022,193.607994 309.651981,193.032 313.396,193.032 C314.836007,193.032 316.227993,193.247998 317.572,193.68 C318.916007,194.112002 319.588,194.807995 319.588,195.768 C319.588,196.536004 319.300003,197.015999 318.724,197.208 C318.147997,197.400001 317.476004,197.496 316.708,197.496 C315.363993,197.496 313.948007,197.328002 312.46,196.992 C310.971993,196.655998 309.508007,196.488 308.068,196.488 C305.859989,196.488 303.628011,197.44799 301.372,199.368 C299.115989,201.28801 296.860011,203.783985 294.604,206.856 C292.347989,209.928015 290.164011,213.359981 288.052,217.152 C285.939989,220.944019 283.996009,224.687982 282.22,228.384 C280.443991,232.080018 278.908006,235.511984 277.612,238.68 C276.315994,241.848016 275.284004,244.343991 274.516,246.168 C272.979992,250.296021 271.20401,254.687977 269.188,259.344 C267.17199,264.000023 264.676015,268.559978 261.7,273.024 C258.723985,277.488022 255.100021,281.68798 250.828,285.624 C246.555979,289.56002 241.348031,292.871987 235.204,295.56 L235.204,295.848 C249.796073,295.848 262.155949,292.680032 272.284,286.344 C282.412051,280.007968 290.403971,270.552063 296.26,257.976 L297.412,258.264 Z" id="F-M" fill="#AD974F"></path>
        <circle id="Oval" stroke="url(#linearGradient-1)" cx="235.5" cy="210.5" r="143.5"></circle>
    </g>
</svg>