<?xml version="1.0" encoding="UTF-8"?>
<svg width="289px" height="289px" viewBox="0 0 289 289" version="1.1" xmlns="http://www.w3.org/2000/svg" xmlns:xlink="http://www.w3.org/1999/xlink">
    <!-- Generator: Sketch 50.2 (55047) - http://www.bohemiancoding.com/sketch -->
    <title>logo</title>
    <desc>Created with Sketch.</desc>
    <defs>
        <linearGradient x1="50%" y1="0%" x2="50%" y2="100%" id="linearGradient-1">
            <stop stop-color="#D6C887" offset="0%"></stop>
            <stop stop-color="#403D31" offset="100%"></stop>
        </linearGradient>
    </defs>
    <g id="Page-1" stroke="none" stroke-width="1" fill="none" fill-rule="evenodd">
        <g id="logo" transform="translate(1.000000, 1.000000)">
            <path d="M140.756,97.488 L141.044,95.76 L147.236,95.76 C150.020014,91.439978 152.875985,87.072022 155.804,82.656 C158.732015,78.239978 161.947982,74.088019 165.452,70.2 C168.956018,66.311981 172.843979,62.856015 177.116,59.832 C181.388021,56.807985 186.163974,54.624007 191.444,53.28 L191.444,52.992 C188.947988,52.992 186.404013,52.968 183.812,52.92 C181.219987,52.872 178.412015,52.8 175.388,52.704 C172.363985,52.608 169.004018,52.536 165.308,52.488 C161.611982,52.44 157.412024,52.416 152.708,52.416 C143.203952,52.416 134.564039,53.231992 126.788,54.864 C119.011961,56.496008 112.364028,58.799985 106.844,61.776 C101.323972,64.752015 97.028015,68.23198 93.956,72.216 C90.883985,76.20002 89.252001,80.591976 89.06,85.392 C88.867999,90.000023 90.523982,93.671986 94.028,96.408 C97.532018,99.144014 102.30797,100.512 108.356,100.512 C112.29202,100.512 116.323979,99.864006 120.452,98.568 C124.580021,97.271994 128.323983,95.448012 131.684,93.096 C135.044017,90.743988 137.803989,87.936016 139.964,84.672 C142.124011,81.407984 143.204,77.856019 143.204,74.016 C143.204,72.383992 143.060001,70.920006 142.772,69.624 C142.483999,68.327994 142.196001,67.152005 141.908,66.096 L143.348,65.808 C144.404005,68.496013 144.932,71.279986 144.932,74.16 C144.932,77.616017 143.92401,81.023983 141.908,84.384 C139.89199,87.744017 137.204017,90.743987 133.844,93.384 C130.483983,96.024013 126.572022,98.159992 122.108,99.792 C117.643978,101.424008 113.012024,102.24 108.212,102.24 C101.779968,102.24 96.692019,100.800014 92.948,97.92 C89.203981,95.039986 87.332,91.008026 87.332,85.824 C87.332,80.543974 89.131982,75.480024 92.732,70.632 C96.332018,65.783976 101.539966,61.488019 108.356,57.744 C115.172034,53.999981 123.54795,51.024011 133.484,48.816 C143.42005,46.607989 154.723937,45.504 167.396,45.504 C175.844042,45.504 183.211969,45.599999 189.5,45.792 C195.788031,45.984001 200.467985,46.08 203.54,46.08 C205.748011,46.08 207.739991,45.984001 209.516,45.792 C211.292009,45.599999 212.899993,45.504 214.34,45.504 C216.26001,45.504 217.891993,45.623999 219.236,45.864 C220.580007,46.104001 221.252,46.943993 221.252,48.384 C221.252,49.632006 221.012002,50.591997 220.532,51.264 C220.051998,51.936003 218.876009,52.415999 217.004,52.704 C215.131991,52.992001 212.372018,53.16 208.724,53.208 C205.075982,53.256 200.132031,53.28 193.892,53.28 C188.323972,55.29601 183.668019,57.959983 179.924,61.272 C176.179981,64.584017 172.940014,68.183981 170.204,72.072 C167.467986,75.960019 165.020011,79.94398 162.86,84.024 C160.699989,88.10402 158.324013,91.919982 155.732,95.472 C156.884006,95.279999 158.347991,95.136 160.124,95.04 C161.900009,94.944 163.651991,94.800001 165.38,94.608 C167.108009,94.415999 168.691993,94.176001 170.132,93.888 C171.572007,93.599999 172.483998,93.168003 172.868,92.592 C173.732004,91.439994 174.763994,90.288006 175.964,89.136 C177.164006,87.983994 178.77199,87.408 180.788,87.408 C182.036006,87.408 183.235994,87.599998 184.388,87.984 C180.45198,91.344017 176.756017,94.967981 173.3,98.856 C169.843983,102.744019 166.724014,106.895978 163.94,111.312 L163.076,110.88 C164.036005,108.191987 165.187993,105.624012 166.532,103.176 C167.876007,100.727988 169.219993,98.256012 170.564,95.76 C169.315994,95.952001 167.948007,96.119999 166.46,96.264 C164.971993,96.408001 163.508007,96.551999 162.068,96.696 C160.627993,96.840001 159.284006,96.96 158.036,97.056 C156.787994,97.152 155.780004,97.248 155.012,97.344 C151.555983,103.104029 147.83602,108.815972 143.852,114.48 C139.86798,120.144028 135.428024,125.255977 130.532,129.816 C125.635976,134.376023 120.16403,138.071986 114.116,140.904 C108.06797,143.736014 101.252038,145.152 93.668,145.152 C91.075987,145.152 88.316015,144.816003 85.388,144.144 C82.459985,143.471997 79.748012,142.416007 77.252,140.976 C74.755988,139.535993 72.692008,137.712011 71.06,135.504 C69.427992,133.295989 68.612,130.656015 68.612,127.584 C68.612,125.66399 69.163994,123.888008 70.268,122.256 C71.372006,120.623992 72.979989,119.808 75.092,119.808 C76.628008,119.808 77.803996,120.287995 78.62,121.248 C79.436004,122.208005 79.844,123.407993 79.844,124.848 C79.844,126.192007 79.508003,127.367995 78.836,128.376 C78.163997,129.384005 77.156007,129.888 75.812,129.888 C75.235997,129.888 74.756002,129.84 74.372,129.744 C74.372,130.032001 74.491999,130.919993 74.732,132.408 C74.972001,133.896007 75.715994,135.455992 76.964,137.088 C78.212006,138.720008 80.203986,140.183994 82.94,141.48 C85.676014,142.776006 89.491976,143.424 94.388,143.424 C100.628031,143.424 106.339974,141.864016 111.524,138.744 C116.708026,135.623984 121.411979,131.760023 125.636,127.152 C129.860021,122.543977 133.675983,117.552027 137.084,112.176 C140.492017,106.799973 143.587986,101.904022 146.372,97.488 L140.756,97.488 Z M205.412,191.264 C202.435985,197.888033 198.836021,203.647976 194.612,208.544 C190.387979,213.440024 185.684026,217.471984 180.5,220.64 C175.315974,223.808016 169.70003,226.159992 163.652,227.696 C157.60397,229.232008 151.316033,230 144.788,230 C142.77199,230 141.092007,230.071999 139.748,230.216 C138.403993,230.360001 137.300004,230.503999 136.436,230.648 L134.276,231.008 C133.699997,231.104 133.124003,231.152 132.548,231.152 C131.683996,231.152 130.964003,231.032001 130.388,230.792 C129.811997,230.551999 129.524,230.144003 129.524,229.568 C129.524,228.799996 129.931996,228.344001 130.748,228.2 C131.564004,228.055999 132.211998,227.984 132.692,227.984 C134.036007,227.984 135.331994,228.079999 136.58,228.272 C137.828006,228.464001 139.123993,228.655999 140.468,228.848 C146.228029,226.063986 151.12398,222.056026 155.156,216.824 C159.18802,211.591974 162.787984,205.736032 165.956,199.256 C169.124016,192.775968 172.075986,185.984036 174.812,178.88 C177.548014,171.775964 180.571983,165.032032 183.884,158.648 C187.196017,152.263968 191.011978,146.504026 195.332,141.368 C199.652022,136.231974 204.931969,132.368013 211.172,129.776 L210.884,129.488 C206.755979,130.160003 202.340024,131.983985 197.636,134.96 C192.931976,137.936015 188.204024,141.655978 183.452,146.12 C178.699976,150.584022 173.996023,155.575972 169.34,161.096 C164.683977,166.616028 160.244021,172.303971 156.02,178.16 C152.755984,182.768023 149.420017,187.471976 146.012,192.272 C142.603983,197.072024 139.076018,201.751977 135.428,206.312 C131.779982,210.872023 127.892021,215.263979 123.764,219.488 C119.635979,223.712021 115.124024,227.599982 110.228,231.152 L109.22,229.712 C112.580017,224.431974 115.29199,218.76803 117.356,212.72 C119.42001,206.67197 121.339991,200.528031 123.116,194.288 C124.892009,188.047969 126.691991,181.856031 128.516,175.712 C130.340009,169.567969 132.667986,163.712028 135.5,158.144 C138.332014,152.575972 141.859979,147.440024 146.084,142.736 C150.308021,138.031976 155.635968,134.048016 162.068,130.784 L161.78,130.496 C155.443968,132.608011 149.636026,135.65598 144.356,139.64 C139.075974,143.62402 134.180023,148.135975 129.668,153.176 C125.155977,158.216025 120.980019,163.639971 117.14,169.448 C113.299981,175.256029 109.604018,181.039971 106.052,186.8 C102.499982,192.560029 99.092016,198.127973 95.828,203.504 C92.563984,208.880027 89.204017,213.60798 85.748,217.688 C82.291983,221.76802 78.59602,225.031988 74.66,227.48 C70.72398,229.928012 66.308024,231.152 61.412,231.152 C60.163994,231.152 58.940006,231.056001 57.74,230.864 C56.539994,230.671999 55.436005,230.288003 54.428,229.712 C53.419995,229.135997 52.604003,228.368005 51.98,227.408 C51.355997,226.447995 51.044,225.200008 51.044,223.664 C51.044,222.223993 51.523995,221.024005 52.484,220.064 C53.444005,219.103995 54.643993,218.624 56.084,218.624 C57.332006,218.624 58.339996,219.103995 59.108,220.064 C59.876004,221.024005 60.26,222.127994 60.26,223.376 C60.26,224.144004 60.092002,224.959996 59.756,225.824 C59.419998,226.688004 58.868004,227.215999 58.1,227.408 C58.196,227.984003 58.771995,228.463998 59.828,228.848 C60.884005,229.232002 61.891995,229.424 62.852,229.424 C67.076021,229.424 71.011982,228.104013 74.66,225.464 C78.308018,222.823987 81.883982,219.320022 85.388,214.952 C88.892018,210.583978 92.371983,205.592028 95.828,199.976 C99.284017,194.359972 102.883981,188.52803 106.628,182.48 C111.044022,175.471965 115.459978,168.896031 119.876,162.752 C124.292022,156.607969 129.043975,151.112024 134.132,146.264 C139.220025,141.415976 144.81197,137.312017 150.908,133.952 C157.00403,130.591983 163.939961,128.144008 171.716,126.608 L171.86,127.904 C165.90797,129.728009 160.96402,132.63198 157.028,136.616 C153.09198,140.60002 149.708014,145.279973 146.876,150.656 C144.043986,156.032027 141.59601,161.887968 139.532,168.224 C137.46799,174.560032 135.356011,180.967968 133.196,187.448 C131.035989,193.928032 128.660013,200.287969 126.068,206.528 C123.475987,212.768031 120.21202,218.527974 116.276,223.808 L116.564,224.096 C120.116018,221.023985 123.691982,217.400021 127.292,213.224 C130.892018,209.047979 134.419983,204.680023 137.876,200.12 C141.332017,195.559977 144.667984,191.000023 147.884,186.44 C151.100016,181.879977 154.099986,177.680019 156.884,173.84 C164.372037,163.567949 171.235969,155.312031 177.476,149.072 C183.716031,142.831969 189.475974,138.008017 194.756,134.6 C200.036026,131.191983 204.859978,128.912006 209.228,127.76 C213.596022,126.607994 217.651981,126.032 221.396,126.032 C222.836007,126.032 224.227993,126.247998 225.572,126.68 C226.916007,127.112002 227.588,127.807995 227.588,128.768 C227.588,129.536004 227.300003,130.015999 226.724,130.208 C226.147997,130.400001 225.476004,130.496 224.708,130.496 C223.363993,130.496 221.948007,130.328002 220.46,129.992 C218.971993,129.655998 217.508007,129.488 216.068,129.488 C213.859989,129.488 211.628011,130.44799 209.372,132.368 C207.115989,134.28801 204.860011,136.783985 202.604,139.856 C200.347989,142.928015 198.164011,146.359981 196.052,150.152 C193.939989,153.944019 191.996009,157.687982 190.22,161.384 C188.443991,165.080018 186.908006,168.511984 185.612,171.68 C184.315994,174.848016 183.284004,177.343991 182.516,179.168 C180.979992,183.296021 179.20401,187.687977 177.188,192.344 C175.17199,197.000023 172.676015,201.559978 169.7,206.024 C166.723985,210.488022 163.100021,214.68798 158.828,218.624 C154.555979,222.56002 149.348031,225.871987 143.204,228.56 L143.204,228.848 C157.796073,228.848 170.155949,225.680032 180.284,219.344 C190.412051,213.007968 198.403971,203.552063 204.26,190.976 L205.412,191.264 Z" id="F-M" fill="#AD974F" fill-rule="nonzero"></path>
            <circle id="Oval" stroke="url(#linearGradient-1)" cx="143.5" cy="143.5" r="143.5"></circle>
        </g>
    </g>
</svg>