<?xml version="1.0" encoding="UTF-8"?>
<svg width="331px" height="169px" viewBox="0 0 331 169" version="1.1" xmlns="http://www.w3.org/2000/svg" xmlns:xlink="http://www.w3.org/1999/xlink">
    <!-- Generator: Sketch 50.2 (55047) - http://www.bohemiancoding.com/sketch -->
    <title>Artboard@2X</title>
    <desc>Created with Sketch.</desc>
    <defs>
        <path d="M79.6377692,84.4572216 C80.3966539,84.3678379 80.8659571,84.2225917 81.045693,84.0214785 C81.2254288,83.8203653 81.3152954,83.5633912 81.3152954,83.2505484 L81.3152954,58.5807867 L81.1954721,58.4467119 L70.5311982,84.4572216 L59.9867477,58.1785623 L59.8669244,58.1785623 L59.8669244,83.2505484 C59.8669244,83.5633912 59.9567909,83.8203653 60.1365268,84.0214785 C60.3162626,84.2225917 60.7855659,84.3678379 61.5444506,84.4572216 L61.5444506,85.2616703 L51,85.2616703 L51,84.4572216 C51.7588847,84.3678379 52.2281879,84.2225917 52.4079238,84.0214785 C52.5876597,83.8203653 52.6775262,83.5633912 52.6775262,83.2505484 L52.6775262,52.0111219 C52.6775262,51.6982791 52.5876597,51.441305 52.4079238,51.2401918 C52.2281879,51.0390786 51.7588847,50.8938324 51,50.8044488 L51,50 L66.6369409,50 L66.6369409,50.8044488 C65.6783497,50.8491406 65.1990613,51.2513609 65.1990613,52.0111219 C65.1990613,52.0558137 65.3188834,52.4133429 65.5585312,53.0837202 C65.798179,53.7540975 66.1077194,54.5808838 66.4871618,55.5641039 C66.8666041,56.5473239 67.2859815,57.6087388 67.7453065,58.7483802 C68.2046314,59.8880216 68.6439791,60.9829548 69.0633628,62.0332126 C69.4827464,63.0834704 69.8521979,64.0108118 70.1717283,64.8152645 C70.4912587,65.6197173 70.7109326,66.1560111 70.8307565,66.424162 C71.5097586,64.7258728 72.2087209,63.0723003 72.9276643,61.4633947 C73.6466077,59.8544892 74.2956441,58.3796812 74.8747929,57.0389266 C75.4539418,55.698172 75.923245,54.5808932 76.2827167,53.6870568 C76.6421884,52.7932204 76.8219216,52.234581 76.8219216,52.0111219 C76.8219216,51.2513609 76.3426332,50.8491406 75.384042,50.8044488 L75.384042,50 L91.6200994,50 L91.6200994,50.8044488 C90.8612147,50.8938324 90.3919114,51.0390786 90.2121756,51.2401918 C90.0324397,51.441305 89.9425732,51.6982791 89.9425732,52.0111219 L89.9425732,83.2505484 C89.9425732,83.5633912 90.0324397,83.8203653 90.2121756,84.0214785 C90.3919114,84.2225917 90.8612147,84.3678379 91.6200994,84.4572216 L91.6200994,85.2616703 L79.6377692,85.2616703 L79.6377692,84.4572216 Z M108.275538,83.7868476 C108.275538,84.0103067 108.345435,84.1778985 108.485229,84.2896281 C108.625024,84.4013576 108.914594,84.4572216 109.353948,84.4572216 L109.353948,85.2616703 L98.7495859,85.2616703 L98.7495859,84.4572216 C99.1889402,84.3678379 99.5084658,84.2225917 99.7081723,84.0214785 C99.9078788,83.8203653 100.107582,83.4516633 100.307289,82.9153615 C100.387171,82.6919024 100.586875,82.0885718 100.906405,81.1053518 C101.225936,80.1221317 101.645313,78.8819523 102.16455,77.3847763 C102.683787,75.8876003 103.262927,74.2228549 103.901988,72.3904903 C104.541049,70.5581256 105.1801,68.6922701 105.819161,66.7928677 C106.458221,64.8934653 107.087288,63.0387826 107.706378,61.2287638 C108.325468,59.4187451 108.874652,57.7986909 109.353948,56.3685526 L110.522225,52.882608 C110.821785,51.9887716 110.971563,51.5195145 110.971563,51.4748227 C110.971563,51.2513636 110.841755,51.0949446 110.582137,51.0055609 C110.322518,50.9161773 110.052919,50.8491406 109.77333,50.8044488 L109.77333,50 L125.410271,50 L125.410271,50.8044488 C125.09074,50.8491406 124.831126,50.9161773 124.631419,51.0055609 C124.431713,51.0949446 124.331861,51.3184003 124.331861,51.6759349 C124.331861,51.7653185 124.521579,52.3463035 124.901022,53.4189072 C125.280464,54.4915109 125.769737,55.8881094 126.368857,57.6087445 C126.967976,59.3293796 127.656954,61.2734446 128.435809,63.4409979 C129.214664,65.6085512 130.023464,67.8207632 130.862231,70.0777001 C131.700998,72.3346371 132.509797,74.5356762 133.288653,76.6808836 C134.067508,78.826091 134.776455,80.7478105 135.415516,82.4460997 C135.735047,83.2505525 136.004646,83.7868463 136.224324,84.0549972 C136.444001,84.3231481 136.733571,84.4572216 137.093043,84.4572216 L137.093043,85.2616703 L125.290447,85.2616703 L125.290447,84.4572216 C126.049332,84.4125297 126.428769,84.1443828 126.428769,83.6527728 C126.428769,83.608081 126.328917,83.3064157 126.12921,82.747768 C125.929504,82.1891202 125.70983,81.5634441 125.470182,80.8707209 C125.230534,80.1779977 125.000875,79.5188032 124.781198,78.8931177 C124.561521,78.2674322 124.431714,77.8428663 124.391773,77.6194072 L110.192711,77.6194072 C109.793298,78.8260863 109.473773,79.8092916 109.234125,80.5690526 C108.994477,81.3288136 108.804759,81.9321441 108.664964,82.3790623 C108.52517,82.8259805 108.425318,83.1499913 108.365406,83.3511045 C108.305494,83.5522177 108.275538,83.697464 108.275538,83.7868476 Z M122.83407,72.2564155 L117.022639,56.3015152 L111.690502,72.2564155 L122.83407,72.2564155 Z M175.676146,77.083108 C175.995676,77.083108 176.23532,76.9602073 176.395086,76.7144023 C176.554851,76.4685973 176.674673,75.9658219 176.754555,75.2060609 L177.473495,75.2060609 L177.473495,86.8035304 L176.754555,86.8035304 C176.674673,86.0884613 176.554851,85.6527226 176.395086,85.4963012 C176.23532,85.3398798 175.995676,85.2616703 175.676146,85.2616703 L144.402264,85.2616703 L144.402264,84.4572216 C145.161149,84.3678379 145.630452,84.2225917 145.810188,84.0214785 C145.989924,83.8203653 146.07979,83.5633912 146.07979,83.2505484 L146.07979,52.0111219 C146.07979,51.6982791 145.989924,51.441305 145.810188,51.2401918 C145.630452,51.0390786 145.161149,50.8938324 144.402264,50.8044488 L144.402264,50 L156.744064,50 L156.744064,50.8044488 C155.985179,50.8938324 155.515876,51.0390786 155.33614,51.2401918 C155.156404,51.441305 155.066538,51.6982791 155.066538,52.0111219 L155.066538,77.083108 L175.676146,77.083108 Z M191.492822,83.7868476 C191.492822,84.0103067 191.562718,84.1778985 191.702512,84.2896281 C191.842307,84.4013576 192.131877,84.4572216 192.571231,84.4572216 L192.571231,85.2616703 L181.966869,85.2616703 L181.966869,84.4572216 C182.406223,84.3678379 182.725749,84.2225917 182.925456,84.0214785 C183.125162,83.8203653 183.324866,83.4516633 183.524572,82.9153615 C183.604455,82.6919024 183.804158,82.0885718 184.123689,81.1053518 C184.443219,80.1221317 184.862596,78.8819523 185.381833,77.3847763 C185.90107,75.8876003 186.48021,74.2228549 187.119271,72.3904903 C187.758332,70.5581256 188.397383,68.6922701 189.036444,66.7928677 C189.675505,64.8934653 190.304571,63.0387826 190.923661,61.2287638 C191.542751,59.4187451 192.091936,57.7986909 192.571231,56.3685526 L193.739509,52.882608 C194.039068,51.9887716 194.188846,51.5195145 194.188846,51.4748227 C194.188846,51.2513636 194.059039,51.0949446 193.79942,51.0055609 C193.539802,50.9161773 193.270202,50.8491406 192.990613,50.8044488 L192.990613,50 L208.627554,50 L208.627554,50.8044488 C208.308023,50.8491406 208.048409,50.9161773 207.848702,51.0055609 C207.648996,51.0949446 207.549144,51.3184003 207.549144,51.6759349 C207.549144,51.7653185 207.738862,52.3463035 208.118305,53.4189072 C208.497747,54.4915109 208.987021,55.8881094 209.58614,57.6087445 C210.18526,59.3293796 210.874237,61.2734446 211.653092,63.4409979 C212.431948,65.6085512 213.240747,67.8207632 214.079514,70.0777001 C214.918281,72.3346371 215.727081,74.5356762 216.505936,76.6808836 C217.284791,78.826091 217.993739,80.7478105 218.6328,82.4460997 C218.95233,83.2505525 219.22193,83.7868463 219.441607,84.0549972 C219.661284,84.3231481 219.950854,84.4572216 220.310326,84.4572216 L220.310326,85.2616703 L208.507731,85.2616703 L208.507731,84.4572216 C209.266615,84.4125297 209.646052,84.1443828 209.646052,83.6527728 C209.646052,83.608081 209.5462,83.3064157 209.346494,82.747768 C209.146787,82.1891202 208.927113,81.5634441 208.687465,80.8707209 C208.447818,80.1779977 208.218159,79.5188032 207.998482,78.8931177 C207.778804,78.2674322 207.648997,77.8428663 207.609056,77.6194072 L193.409994,77.6194072 C193.010581,78.8260863 192.691056,79.8092916 192.451408,80.5690526 C192.21176,81.3288136 192.022042,81.9321441 191.882247,82.3790623 C191.742453,82.8259805 191.642601,83.1499913 191.582689,83.3511045 C191.522777,83.5522177 191.492822,83.697464 191.492822,83.7868476 Z M206.051353,72.2564155 L200.239923,56.3015152 L194.907786,72.2564155 L206.051353,72.2564155 Z M256.01767,84.4572216 C256.776555,84.3678379 257.245858,84.2225917 257.425594,84.0214785 C257.605329,83.8203653 257.695196,83.5633912 257.695196,83.2505484 L257.695196,58.5807867 L257.575373,58.4467119 L246.911099,84.4572216 L236.366648,58.1785623 L236.246825,58.1785623 L236.246825,83.2505484 C236.246825,83.5633912 236.336692,83.8203653 236.516427,84.0214785 C236.696163,84.2225917 237.165466,84.3678379 237.924351,84.4572216 L237.924351,85.2616703 L227.379901,85.2616703 L227.379901,84.4572216 C228.138785,84.3678379 228.608089,84.2225917 228.787824,84.0214785 C228.96756,83.8203653 229.057427,83.5633912 229.057427,83.2505484 L229.057427,52.0111219 C229.057427,51.6982791 228.96756,51.441305 228.787824,51.2401918 C228.608089,51.0390786 228.138785,50.8938324 227.379901,50.8044488 L227.379901,50 L243.016842,50 L243.016842,50.8044488 C242.05825,50.8491406 241.578962,51.2513609 241.578962,52.0111219 C241.578962,52.0558137 241.698784,52.4133429 241.938432,53.0837202 C242.17808,53.7540975 242.48762,54.5808838 242.867062,55.5641039 C243.246505,56.5473239 243.665882,57.6087388 244.125207,58.7483802 C244.584532,59.8880216 245.02388,60.9829548 245.443263,62.0332126 C245.862647,63.0834704 246.232099,64.0108118 246.551629,64.8152645 C246.871159,65.6197173 247.090833,66.1560111 247.210657,66.424162 C247.889659,64.7258728 248.588621,63.0723003 249.307565,61.4633947 C250.026508,59.8544892 250.675545,58.3796812 251.254694,57.0389266 C251.833842,55.698172 252.303146,54.5808932 252.662617,53.6870568 C253.022089,52.7932204 253.201822,52.234581 253.201822,52.0111219 C253.201822,51.2513609 252.722534,50.8491406 251.763943,50.8044488 L251.763943,50 L268,50 L268,50.8044488 C267.241115,50.8938324 266.771812,51.0390786 266.592076,51.2401918 C266.41234,51.441305 266.322474,51.6982791 266.322474,52.0111219 L266.322474,83.2505484 C266.322474,83.5633912 266.41234,83.8203653 266.592076,84.0214785 C266.771812,84.2225917 267.241115,84.3678379 268,84.4572216 L268,85.2616703 L256.01767,85.2616703 L256.01767,84.4572216 Z M122.752523,120.26264 C123.482561,120.26264 124.119394,120.19312 124.663039,120.054079 C125.206685,119.915038 125.657127,119.667374 126.01438,119.311081 C126.371632,118.954788 126.639568,118.481186 126.818194,117.890261 C126.996821,117.299336 127.086133,116.552 127.086133,115.648232 C127.086133,114.744464 126.996821,113.997129 126.818194,113.406204 C126.639568,112.815279 126.371632,112.341677 126.01438,111.985383 C125.657127,111.62909 125.206685,111.381427 124.663039,111.242386 C124.119394,111.103344 123.482561,111.033825 122.752523,111.033825 L119.141182,111.033825 L119.141182,120.26264 L122.752523,120.26264 Z M123.684482,108.791796 C124.538782,108.791796 125.334823,108.930835 126.072627,109.208918 C126.810432,109.487 127.451147,109.908463 127.994793,110.473318 C128.538438,111.038173 128.965582,111.750748 129.276236,112.611066 C129.586891,113.471383 129.742216,114.483762 129.742216,115.648232 C129.742216,116.812702 129.586891,117.825081 129.276236,118.685399 C128.965582,119.545716 128.538438,120.258292 127.994793,120.823147 C127.451147,121.388002 126.810432,121.809464 126.072627,122.087547 C125.334823,122.365629 124.538782,122.504668 123.684482,122.504668 L115.949222,122.504668 L115.949222,122.035406 C116.306475,122.035406 116.485099,121.878987 116.485099,121.566145 L116.485099,109.73032 C116.485099,109.417477 116.306475,109.261058 115.949222,109.261058 L115.949222,108.791796 L123.684482,108.791796 Z M144.560364,111.607367 C144.560364,111.416185 144.494351,111.272801 144.362323,111.17721 C144.230295,111.08162 144.00119,111.033825 143.675003,111.033825 L136.126135,111.033825 L136.126135,114.266517 L140.692734,114.266517 C141.003389,114.266517 141.244142,114.218722 141.415002,114.123131 C141.585862,114.027541 141.671291,113.779877 141.671291,113.380134 L142.090673,113.380134 L142.090673,117.447069 L141.671291,117.447069 C141.671291,117.047326 141.585862,116.790972 141.415002,116.678001 C141.244142,116.56503 141.003389,116.508545 140.692734,116.508545 L136.126135,116.508545 L136.126135,120.106219 L143.907993,120.106219 C144.140984,120.106219 144.331257,120.045389 144.478818,119.923728 C144.626379,119.802067 144.700158,119.636958 144.700158,119.428397 L145.11954,119.428397 L145.11954,123 L144.700158,123 C144.700158,122.739298 144.626379,122.591569 144.478818,122.556808 C144.331257,122.522048 144.140984,122.504668 143.907993,122.504668 L133.05067,122.504668 L133.05067,122.035406 C133.159399,122.035406 133.256477,121.996302 133.341907,121.918091 C133.427337,121.83988 133.470052,121.722566 133.470052,121.566145 L133.470052,109.73032 C133.470052,109.573899 133.427337,109.456584 133.341907,109.378374 C133.256477,109.300163 133.159399,109.261058 133.05067,109.261058 L133.05067,108.791796 L143.675003,108.791796 C144.00119,108.791796 144.230295,108.735312 144.362323,108.622341 C144.494351,108.50937 144.560364,108.357296 144.560364,108.166114 L144.979746,108.166114 L144.979746,111.607367 L144.560364,111.607367 Z M149.499747,118.203102 L149.732737,118.333452 C149.732737,118.489874 149.763802,118.628913 149.825933,118.750574 C149.934662,118.959136 150.148233,119.16335 150.466654,119.363221 C150.785075,119.563093 151.150089,119.741237 151.561706,119.897658 C151.973324,120.05408 152.40435,120.180084 152.854799,120.275675 C153.305248,120.371266 153.709093,120.41906 154.066346,120.41906 C154.330402,120.41906 154.672117,120.397335 155.091501,120.353885 C155.510885,120.310435 155.922496,120.21919 156.326347,120.080149 C156.730198,119.941108 157.079679,119.749929 157.374801,119.506607 C157.669922,119.263285 157.817481,118.941757 157.817481,118.542013 C157.817481,118.14227 157.681572,117.846811 157.409749,117.65563 C157.137926,117.464448 156.780679,117.325409 156.337996,117.238508 C155.895313,117.151607 155.390507,117.095123 154.823563,117.069053 C154.256618,117.042982 153.678033,117.003878 153.087789,116.951737 C152.497545,116.899597 151.91896,116.812697 151.352015,116.691036 C150.785071,116.569375 150.280265,116.365161 149.837582,116.078389 C149.394899,115.791616 149.037652,115.400569 148.765829,114.905234 C148.494006,114.4099 148.358097,113.762499 148.358097,112.963012 C148.358097,112.424227 148.470708,111.894141 148.695932,111.372736 C148.921157,110.851332 149.266755,110.390764 149.732737,109.991021 C150.198719,109.591277 150.788953,109.265404 151.503459,109.013392 C152.217964,108.76138 153.056719,108.635376 154.019748,108.635376 C154.842983,108.635376 155.557477,108.704895 156.163254,108.843937 C156.76903,108.982978 157.293252,109.130707 157.735935,109.287128 C158.178617,109.44355 158.551397,109.591279 158.854286,109.73032 C159.157174,109.869361 159.409577,109.938881 159.611502,109.938881 C159.82896,109.938881 159.984285,109.886741 160.077482,109.78246 L160.357069,109.991021 L158.74944,113.249783 L158.51645,113.145503 C158.485385,112.902181 158.423255,112.702312 158.330059,112.545891 C158.205797,112.337329 157.999991,112.133115 157.712636,111.933243 C157.42528,111.733371 157.087449,111.555228 156.69913,111.398806 C156.310812,111.242385 155.891435,111.116381 155.440986,111.02079 C154.990537,110.925199 154.540094,110.877404 154.089645,110.877404 C153.747925,110.877404 153.394561,110.907819 153.029542,110.96865 C152.664523,111.02948 152.334457,111.120725 152.039335,111.242386 C151.744213,111.364047 151.499577,111.524811 151.305418,111.724682 C151.111258,111.924554 151.01418,112.172218 151.01418,112.46768 C151.01418,112.884804 151.15009,113.197642 151.421912,113.406204 C151.693735,113.614766 152.050983,113.771185 152.493665,113.875466 C152.936348,113.979746 153.441154,114.049266 154.008099,114.084026 C154.575043,114.118787 155.153629,114.162236 155.743872,114.214377 C156.334116,114.266517 156.912701,114.357762 157.479646,114.488113 C158.046591,114.618464 158.551397,114.827023 158.994079,115.113795 C159.436762,115.400568 159.79401,115.78727 160.065832,116.273915 C160.337655,116.760559 160.473564,117.394925 160.473564,118.177032 C160.473564,119.0808 160.259993,119.819445 159.832843,120.39299 C159.405692,120.966535 158.873705,121.418412 158.236863,121.748635 C157.600021,122.078858 156.912708,122.300452 156.174903,122.413423 C155.437099,122.526394 154.749786,122.582878 154.112944,122.582878 C153.227579,122.582878 152.485902,122.526394 151.887892,122.413423 C151.289882,122.300452 150.792842,122.161413 150.396757,121.996301 C150.000673,121.83119 149.68614,121.683461 149.453149,121.55311 C149.220158,121.422758 149.018236,121.357584 148.847376,121.357584 C148.738647,121.357584 148.637685,121.427103 148.544489,121.566145 L148.218303,121.357584 L149.499747,118.203102 Z M164.061607,122.035406 C164.465457,122.035406 164.66738,121.878987 164.66738,121.566145 L164.66738,109.73032 C164.66738,109.417477 164.465457,109.261058 164.061607,109.261058 L164.061607,108.791796 L167.929236,108.791796 L167.929236,109.261058 C167.525386,109.261058 167.323463,109.417477 167.323463,109.73032 L167.323463,121.566145 C167.323463,121.878987 167.525386,122.035406 167.929236,122.035406 L167.929236,122.504668 L164.061607,122.504668 L164.061607,122.035406 Z M183.050271,113.015152 L182.584292,112.858732 C182.615357,112.754451 182.63089,112.650171 182.63089,112.545891 C182.63089,112.285188 182.487214,112.05056 182.199859,111.841998 C181.912503,111.633436 181.54749,111.455292 181.104807,111.307561 C180.662124,111.15983 180.180617,111.051205 179.660271,110.981685 C179.139924,110.912164 178.646767,110.877404 178.180786,110.877404 C177.606075,110.877404 177.035256,110.968649 176.468311,111.15114 C175.901366,111.333632 175.39656,111.616055 174.953878,111.998418 C174.511195,112.380782 174.153947,112.876109 173.882125,113.484414 C173.610302,114.092719 173.474393,114.831365 173.474393,115.700372 C173.474393,116.552 173.610302,117.2863 173.882125,117.903296 C174.153947,118.520291 174.511195,119.019963 174.953878,119.402326 C175.39656,119.78469 175.901366,120.067113 176.468311,120.249605 C177.035256,120.432096 177.606075,120.523341 178.180786,120.523341 C179.066151,120.523341 179.862191,120.440786 180.568931,120.275675 C181.27567,120.110563 181.877554,119.932419 182.374601,119.741238 L182.374601,117.499209 L179.392332,117.499209 C179.174874,117.499209 179.011783,117.551349 178.903054,117.65563 C178.794325,117.759911 178.724429,117.985849 178.693363,118.333452 L178.273982,118.333452 L178.273982,114.99648 L178.693363,114.99648 C178.724429,115.291942 178.794325,115.478776 178.903054,115.556987 C179.011783,115.635198 179.174874,115.674302 179.392332,115.674302 L185.217076,115.674302 L185.217076,116.143564 C184.906422,116.195705 184.712265,116.256534 184.634602,116.326055 C184.556938,116.395575 184.518107,116.543304 184.518107,116.769246 L184.518107,119.715168 C184.518107,119.888969 184.564704,120.001938 184.657901,120.054079 L184.984086,120.23657 L184.984086,120.653691 C184.471506,121.053435 183.931752,121.383653 183.364808,121.644355 C182.797863,121.905057 182.223161,122.109271 181.640683,122.257002 C181.058206,122.404733 180.475738,122.495978 179.89326,122.530738 C179.310783,122.565499 178.739964,122.582878 178.180786,122.582878 C177.093495,122.582878 176.103298,122.430804 175.210166,122.126652 C174.317034,121.822499 173.552059,121.370622 172.915217,120.771007 C172.278375,120.171391 171.785219,119.441436 171.435732,118.581118 C171.086246,117.720801 170.911505,116.743182 170.911505,115.648232 C170.911505,114.553283 171.086246,113.575664 171.435732,112.715346 C171.785219,111.855029 172.278375,111.120728 172.915217,110.512423 C173.552059,109.904117 174.317034,109.439205 175.210166,109.117673 C176.103298,108.79614 177.093495,108.635376 178.180786,108.635376 C178.864226,108.635376 179.51659,108.687515 180.1379,108.791796 C180.759209,108.896077 181.310612,109.013392 181.792127,109.143743 C182.273641,109.274094 182.673603,109.395753 182.992024,109.508724 C183.310445,109.621695 183.508484,109.67818 183.586148,109.67818 C183.725942,109.67818 183.83467,109.64342 183.912334,109.573899 C183.989997,109.504379 184.06766,109.443549 184.145323,109.391409 L184.424911,109.573899 L183.050271,113.015152 Z M188.828417,122.035406 C189.123539,122.035406 189.271098,121.878987 189.271098,121.566145 L189.271098,109.73032 C189.271098,109.417477 189.123539,109.261058 188.828417,109.261058 L188.828417,108.791796 L192.812542,108.791796 L192.812542,109.261058 C192.68828,109.261058 192.62615,109.347958 192.62615,109.521759 C192.62615,109.6608 192.781475,109.904119 193.09213,110.251722 L199.778936,118.020611 L199.778936,109.73032 C199.778936,109.417477 199.577013,109.261058 199.173162,109.261058 L199.173162,108.791796 L202.691308,108.791796 L202.691308,109.261058 C202.396186,109.261058 202.248627,109.417477 202.248627,109.73032 L202.248627,121.566145 C202.248627,121.878987 202.396186,122.035406 202.691308,122.035406 L202.691308,122.504668 L198.916874,122.504668 L198.916874,122.035406 C199.118799,122.035406 199.21976,121.957197 199.21976,121.800775 C199.21976,121.679114 199.0955,121.479246 198.846977,121.201163 L191.740789,112.910872 L191.740789,121.566145 C191.740789,121.878987 191.919413,122.035406 192.276666,122.035406 L192.276666,122.504668 L188.828417,122.504668 L188.828417,122.035406 Z" id="path-1"></path>
        <filter x="-3.5%" y="-7.5%" width="106.9%" height="120.5%" filterUnits="objectBoundingBox" id="filter-2">
            <feMorphology radius="0.5" operator="dilate" in="SourceAlpha" result="shadowSpreadOuter1"></feMorphology>
            <feOffset dx="0" dy="2" in="shadowSpreadOuter1" result="shadowOffsetOuter1"></feOffset>
            <feGaussianBlur stdDeviation="2" in="shadowOffsetOuter1" result="shadowBlurOuter1"></feGaussianBlur>
            <feComposite in="shadowBlurOuter1" in2="SourceAlpha" operator="out" result="shadowBlurOuter1"></feComposite>
            <feColorMatrix values="0 0 0 0 0   0 0 0 0 0   0 0 0 0 0  0 0 0 0.5 0" type="matrix" in="shadowBlurOuter1"></feColorMatrix>
        </filter>
        <filter x="-3.0%" y="-6.2%" width="106.0%" height="117.8%" filterUnits="objectBoundingBox" id="filter-3">
            <feGaussianBlur stdDeviation="1.5" in="SourceAlpha" result="shadowBlurInner1"></feGaussianBlur>
            <feOffset dx="0" dy="1" in="shadowBlurInner1" result="shadowOffsetInner1"></feOffset>
            <feComposite in="shadowOffsetInner1" in2="SourceAlpha" operator="arithmetic" k2="-1" k3="1" result="shadowInnerInner1"></feComposite>
            <feColorMatrix values="0 0 0 0 0   0 0 0 0 0   0 0 0 0 0  0 0 0 0.5 0" type="matrix" in="shadowInnerInner1"></feColorMatrix>
        </filter>
        <filter x="-3.0%" y="-6.2%" width="106.0%" height="117.8%" filterUnits="objectBoundingBox" id="filter-4">
            <feGaussianBlur stdDeviation="1.5" in="SourceAlpha" result="shadowBlurInner1"></feGaussianBlur>
            <feOffset dx="0" dy="1" in="shadowBlurInner1" result="shadowOffsetInner1"></feOffset>
            <feComposite in="shadowOffsetInner1" in2="SourceAlpha" operator="arithmetic" k2="-1" k3="1" result="shadowInnerInner1"></feComposite>
            <feColorMatrix values="0 0 0 0 0   0 0 0 0 0   0 0 0 0 0  0 0 0 0.5 0" type="matrix" in="shadowInnerInner1"></feColorMatrix>
        </filter>
    </defs>
    <g id="Artboard" stroke="none" stroke-width="1" fill="none" fill-rule="evenodd">
        <g id="MALAM-DESIGN">
            <use fill="black" fill-opacity="1" filter="url(#filter-2)" xlink:href="#path-1"></use>
            <use fill="#8E793E" fill-rule="evenodd" xlink:href="#path-1"></use>
            <use fill="black" fill-opacity="1" filter="url(#filter-3)" xlink:href="#path-1"></use>
            <use fill="black" fill-opacity="1" filter="url(#filter-4)" xlink:href="#path-1"></use>
        </g>
    </g>
</svg>